HIERARCHY
ROOT Hips
{
  OFFSET 13.6774 106.653 -34.4427
  CHANNELS 6 Xposition Yposition Zposition Zrotation Xrotation Yrotation
  JOINT ToSpine
  {
    OFFSET -2.69724 7.43032 -0.144315
    CHANNELS 3 Zrotation Xrotation Yrotation
    JOINT Spine
    {
      OFFSET -0.0310711 10.7595 1.96963
      CHANNELS 3 Zrotation Xrotation Yrotation
      JOINT Spine1
      {
        OFFSET 19.9056 3.91189 0.764692
        CHANNELS 3 Zrotation Xrotation Yrotation
        JOINT Neck
        {
          OFFSET 25.9749 7.03908 -0.130764
          CHANNELS 3 Zrotation Xrotation Yrotation
          JOINT Head
          {
            OFFSET 9.52751 0.295786 -0.907742
            CHANNELS 3 Zrotation Xrotation Yrotation
            End Site
            {
              OFFSET 16.4037 0.713936 2.7358
            }
          }
        }
        JOINT LeftShoulder
        {
          OFFSET 17.7449 4.33886 11.7777
          CHANNELS 3 Zrotation Xrotation Yrotation
          JOINT LeftArm
          {
            OFFSET 0.911315 1.27913 9.80584
            CHANNELS 3 Zrotation Xrotation Yrotation
            JOINT LeftForeArm
            {
              OFFSET 28.6126 1.18197 -3.53199
              CHANNELS 3 Zrotation Xrotation Yrotation
              JOINT LeftHand
              {
                OFFSET 27.5088 0.0218783 0.327423
                CHANNELS 3 Zrotation Xrotation Yrotation
                End Site
                {
                  OFFSET 18.6038 -0.000155887 0.382096
                }
              }
            }
          }
        }
        JOINT RightShoulder
        {
          OFFSET 17.1009 2.89543 -12.2328
          CHANNELS 3 Zrotation Xrotation Yrotation
          JOINT RightArm
          {
            OFFSET 1.4228 0.178766 -10.211
            CHANNELS 3 Zrotation Xrotation Yrotation
            JOINT RightForeArm
            {
              OFFSET 28.733 1.87905 2.64907
              CHANNELS 3 Zrotation Xrotation Yrotation
              JOINT RightHand
              {
                OFFSET 27.4588 0.290562 -0.101845
                CHANNELS 3 Zrotation Xrotation Yrotation
                End Site
                {
                  OFFSET 17.8396 -0.255518 -0.000602873
                }
              }
            }
          }
        }
      }
    }
  }
  JOINT LeftUpLeg
  {
    OFFSET -5.61296 -2.22332 -10.2353
    CHANNELS 3 Zrotation Xrotation Yrotation
    JOINT LeftLeg
    {
      OFFSET 2.56703 -44.7417 -7.93097
      CHANNELS 3 Zrotation Xrotation Yrotation
      JOINT LeftFoot
      {
        OFFSET 3.16933 -46.5642 -3.96578
        CHANNELS 3 Zrotation Xrotation Yrotation
        JOINT LeftToeBase
        {
          OFFSET 0.346054 -6.02161 12.8035
          CHANNELS 3 Zrotation Xrotation Yrotation
          End Site
          {
            OFFSET 0.134235 -1.35082 5.13018
          }
        }
      }
    }
  }
  JOINT RightUpLeg
  {
    OFFSET -5.7928 -1.72406 10.6446
    CHANNELS 3 Zrotation Xrotation Yrotation
    JOINT RightLeg
    {
      OFFSET -2.57161 -44.7178 -7.85259
      CHANNELS 3 Zrotation Xrotation Yrotation
      JOINT RightFoot
      {
        OFFSET -3.10148 -46.5936 -4.03391
        CHANNELS 3 Zrotation Xrotation Yrotation
        JOINT RightToeBase
        {
          OFFSET -0.0828122 -6.13587 12.8035
          CHANNELS 3 Zrotation Xrotation Yrotation
          End Site
          {
            OFFSET -0.131328 -1.35082 5.13018
          }
        }
      }
    }
  }
}
MOTION
Frames: 19
Frame Time: 0.03333333333333333
0.0000 93.1000 0.0000 52.9533 -37.3698 -29.0733 -70.9995 0.7042 87.9888 88.9985 67.0528 -5.3888 -2.4824 16.7030 1.1655 -167.4560 20.1819 174.7785 -161.7480 59.8362 -175.6616 -0.3842 -12.7019 -27.9880 -83.8010 45.0543 -76.8038 15.0369 -10.6808 -124.2353 -0.2595 0.3423 -0.0941 -2.6839 6.4534 43.1894 -67.9391 -45.4436 50.9681 14.7801 -1.1759 87.9753 -0.2127 -0.3300 -0.6141 -65.7788 -9.1547 88.8774 -3.9294 43.5202 -16.9126 -8.1911 5.5029 1.6585 2.5866 -6.4985 -0.7626 -24.1382 1.7705 85.5776 0.8467 19.7043 18.0920 8.2151 11.9949 -2.6433 1.3138 -15.8275 -20.0613 
0.0000 93.1000 0.0000 49.8852 -39.2652 -33.1147 -71.0020 0.6950 87.9917 86.0246 67.8665 -4.2901 -3.5005 17.4617 1.6193 -169.3248 20.1806 174.8455 -161.6422 59.8200 -175.7955 -0.3060 -12.9052 -28.2898 -82.0121 45.1485 -77.8013 14.1244 -9.7978 -122.2306 -0.1825 0.3408 -0.1779 -2.6695 6.5038 43.3725 -68.8934 -43.3101 53.1788 14.5551 -1.1414 88.9482 -0.1364 -0.3528 -0.5879 -62.5214 -10.7627 90.4576 -4.0804 39.3678 -15.7075 -5.9654 1.0214 0.6646 5.3249 -12.4766 1.3396 -21.4782 3.9277 94.8438 1.9719 35.1868 10.0122 3.8279 5.0485 -1.5205 1.8512 -24.1071 -25.3780 
0.0000 93.1000 0.0000 51.9812 -41.7422 -29.9735 -71.0010 0.6083 87.9912 97.8894 68.7768 -13.6198 -5.3934 18.8123 2.3560 -166.4734 20.5194 172.9877 -158.4185 60.3232 -176.5126 -0.4829 -13.5197 -29.1742 -81.0530 46.0278 -74.8077 13.9612 -7.2175 -115.0690 -0.1267 0.4792 -0.2955 -2.8996 6.4501 43.8161 -68.0569 -40.1891 59.8589 13.8225 -1.1940 86.8658 -0.0457 -0.5201 -0.7510 -58.7200 -10.1579 91.4051 -4.4486 41.1570 -14.3883 -4.6320 -3.8803 0.0605 7.3990 -18.2353 2.5877 -22.5586 4.6680 95.1156 2.6620 53.1480 2.8390 -2.0738 0.5263 -0.3398 1.6989 -26.8845 -23.0377 
0.0000 93.1000 0.0000 54.0470 -43.0434 -27.9751 -71.0017 0.5267 87.9944 108.0765 69.0457 -23.4909 -6.9853 19.3571 3.5488 -165.4396 21.0574 174.2726 -157.4033 61.1239 -175.6313 -0.5003 -14.0101 -30.7153 -79.0723 47.0699 -72.8693 16.0616 -4.6511 -104.4759 -0.0802 0.5560 -0.4795 -2.9924 6.1149 45.0242 -68.1420 -36.1746 66.1147 14.5356 -1.8954 84.9494 -0.1073 -0.6118 -0.6991 -52.4508 -9.0812 91.3958 -5.5195 47.4942 -11.9854 -1.1282 -13.8568 -1.2948 6.5043 -14.8189 6.5078 -26.5370 3.5559 93.0256 6.0606 69.2346 -8.3855 -5.1798 -2.6628 0.5042 0.9192 -23.0446 -15.8554 
0.0000 93.1000 0.0000 52.9531 -44.0123 -28.8217 -71.0049 -0.0114 87.9978 107.8320 69.7438 -24.7018 -6.6432 20.2699 3.8792 -165.5107 21.8109 173.0092 -156.5352 61.2658 -178.5711 -0.2363 -13.8656 -31.6997 -77.7501 48.0468 -71.7578 17.2283 -1.8765 -92.0933 0.4032 0.1869 -0.4800 -3.0414 6.1846 46.2048 -67.9051 -32.0326 73.8544 14.1399 -2.1441 84.1149 -0.0734 -0.2605 -0.4842 -42.3245 -8.0172 90.7090 -5.6804 56.1661 -13.6495 1.3677 -18.7629 -2.0753 6.0460 -15.6036 15.4604 -31.3689 1.7728 92.1271 15.3203 79.2136 -18.8994 -6.5717 -2.0608 0.8700 1.6884 -23.6210 -15.2667 
0.0000 93.1000 0.0000 55.9079 -45.1128 -28.0205 -70.9974 -0.2203 88.0065 108.0340 70.9238 -25.6699 -4.4514 21.5965 4.4358 -166.5360 22.6976 171.2470 -156.5455 62.0927 -179.1178 3.2735 -14.2190 -32.4950 -74.2554 50.2116 -69.8229 14.9956 1.8012 -81.4156 1.4753 -0.4384 -0.5839 -1.0742 6.1387 46.6140 -66.6290 -29.3416 81.7091 14.0927 -1.2089 85.9100 0.0096 0.4525 0.7827 -35.0946 -7.8246 91.9779 -8.0136 60.3909 -13.8210 3.9167 -17.9332 -4.2457 5.0515 -16.7591 19.9467 -42.2189 -1.0515 92.1512 25.7996 83.1316 -28.8420 -9.8144 -1.7860 2.5497 4.1393 -23.0086 -9.4914 
0.0000 93.1000 0.0000 58.9813 -47.1050 -25.6953 -71.0144 -0.4008 88.0018 113.9562 72.3890 -30.3750 -5.8033 23.1542 3.8376 -165.4133 24.2888 172.0987 -154.7672 63.0152 177.2960 -0.0392 -14.8123 -32.7950 -69.7382 53.0233 -64.7895 12.7974 2.3074 -79.9602 -0.1057 -0.2705 0.4119 -2.7919 6.5958 42.3143 -66.0686 -31.7108 89.0718 15.2901 0.0587 92.0277 0.4442 0.3559 0.1802 -31.5508 -7.3896 91.6914 -6.0736 59.2680 -7.2921 5.2957 -16.3100 -2.2856 2.9196 -10.8973 13.0851 -55.2925 -3.3985 91.7110 12.2120 77.1538 -16.3205 -8.6357 2.2493 0.4566 0.7663 -19.0734 -2.6370 
0.0000 93.1000 0.0000 55.8534 -48.0284 -28.1276 -71.0075 -0.4335 88.0032 110.8317 74.9063 -26.6147 -4.8978 25.2635 3.0319 -162.4289 25.9328 172.4083 -154.5296 64.7797 178.8403 0.9008 -13.4711 -30.9880 -65.9606 56.1722 -61.8289 13.6878 2.1717 -81.3966 0.2791 -0.4537 0.1015 -2.2131 6.6959 40.0480 -64.7036 -34.6287 93.9810 15.6253 2.0651 98.8585 0.3180 0.4225 0.6984 -28.1190 -5.0523 90.9115 -3.7893 52.1444 -5.0874 3.8961 -8.6336 -1.8837 2.2799 -6.8207 5.6031 -64.8858 -4.4912 92.2685 4.2361 64.8043 -9.1978 -3.9251 7.2833 -0.1761 0.9223 -9.3795 -1.2516 
0.0000 93.1000 0.0000 54.4507 -47.2089 -29.0757 -70.9991 -0.2807 88.0025 108.9158 76.8448 -21.3774 -4.7048 27.0652 1.7748 -162.4780 27.9491 172.2926 -153.6795 66.8042 177.1299 1.6282 -12.1906 -27.8718 -64.1540 59.9385 -58.8315 12.9443 0.6748 -84.2582 0.4040 -0.4051 -0.1268 -1.8092 6.7496 39.1003 -64.0559 -35.5527 96.8232 16.4104 4.6098 105.0626 0.2403 0.3353 1.0439 -27.9322 -2.7504 88.5654 -3.1246 36.5093 -8.3134 -0.6197 3.5718 -0.4677 1.8203 -4.5034 0.6507 -72.1192 -2.8229 91.9574 2.2207 50.2630 -5.1607 -1.6220 10.0786 -0.4866 1.1862 -3.4993 -4.7033 
0.0000 93.1000 0.0000 51.9392 -45.1489 -27.9982 -70.9929 -0.0233 87.9974 107.1506 77.0976 -14.7781 -4.1837 27.3247 -0.0825 -163.3940 30.1878 172.2786 -152.2631 69.1188 173.8445 1.8103 -11.8957 -26.0359 -65.9908 63.0766 -52.8539 12.5847 0.1658 -87.2458 0.2561 -0.2164 -0.4195 -1.6342 6.6437 38.5374 -62.8365 -36.1084 97.0566 15.9821 7.3447 111.6718 0.0127 0.0474 0.9515 -26.6834 0.9149 92.4083 -0.5325 23.4423 -21.6111 -5.9650 11.9908 0.6874 3.1144 -9.6056 5.9463 -73.3522 -0.0912 92.0387 0.9955 39.3629 -0.1309 -3.9924 10.8991 0.1544 1.6912 -8.8979 -5.4631 
0.0000 93.1000 0.0000 47.2128 -43.2003 -30.0074 -70.9981 -0.3517 87.9983 88.8721 77.1939 4.5910 -2.3938 27.4623 -1.3804 -164.3945 31.9790 171.3120 -150.3463 71.0315 171.5153 1.2693 -11.7528 -26.6205 -67.2555 63.2541 -49.8323 12.5967 -0.0164 -89.0180 0.0549 -0.4295 -0.4521 -1.9518 6.1173 38.9785 -63.8232 -37.2222 95.7495 17.8007 8.7084 115.9117 -0.0638 0.2280 0.8852 -20.7202 1.9513 88.1793 -2.3395 30.2644 -18.4274 -5.3505 8.2370 0.5188 4.1977 -12.7019 13.5082 -70.4696 2.7160 91.8368 1.0148 33.9506 -1.2203 -6.3656 8.9981 0.3159 1.4951 -9.8299 -3.6703 
0.0000 93.1000 0.0000 49.9492 -42.4043 -28.9797 -70.9943 -0.0548 88.0007 96.8086 75.9989 -4.0042 -3.3639 26.0852 0.4432 -164.3949 33.8512 170.9841 -153.2719 72.9252 173.3179 1.6182 -11.8256 -27.6790 -71.8242 61.3630 -46.7032 15.2997 -0.1179 -89.1624 0.0174 -0.1593 -0.5538 -1.6294 5.9417 40.2958 -64.0462 -37.8830 92.1145 16.8823 8.1626 115.4923 -0.1229 0.0633 0.6533 -21.0221 1.1700 87.0601 -4.2625 43.1453 -12.4205 -5.5010 4.0026 -0.1749 4.7769 -14.5807 14.6464 -67.6264 1.8595 88.3439 -0.0395 35.2339 -2.0440 -9.2970 5.9360 0.8342 1.9182 -12.7283 -3.4871 
0.0000 93.1000 0.0000 54.0764 -42.0482 -29.1742 -70.9930 -0.1095 88.0031 111.1120 74.1399 -23.2483 -5.7658 25.2296 2.3499 -162.3945 35.7458 169.9831 -153.4979 75.1088 174.1503 0.7354 -12.2887 -29.0071 -70.2395 59.9424 -52.8086 14.3809 0.0120 -88.5252 -0.3045 -0.0195 -0.2439 -2.0781 5.9801 41.8587 -67.0512 -37.1198 85.8621 20.3150 7.7241 109.9889 0.1565 -0.0054 0.3359 -24.4868 0.1065 91.9626 -5.8850 58.5525 -6.1552 -5.0713 0.7571 0.0373 3.0934 -9.1773 12.5800 -64.6523 0.3010 89.8121 0.8554 38.1674 -3.0296 -7.2726 2.5356 0.2843 -0.1801 -13.1709 -3.0375 
0.0000 93.1000 0.0000 54.8919 -41.2132 -29.9970 -70.9959 0.0363 88.0046 108.9178 73.0896 -25.3390 -5.8036 24.2721 3.2953 -162.3199 36.2598 168.9791 -152.3415 75.2454 172.8561 0.2523 -13.0259 -31.0087 -71.9879 57.0759 -54.7887 13.9817 -0.3609 -89.0305 0.0940 0.1994 -0.1240 -2.2632 6.1464 43.5338 -68.7302 -36.2125 80.7906 21.6636 4.7762 102.8715 0.4639 -0.2208 -0.0631 -27.3197 -0.0307 93.8720 -11.7244 72.0769 1.9190 -5.0503 2.3921 0.3663 2.3540 -10.6276 10.6441 -57.7028 0.9315 90.9722 1.0934 40.9451 -0.5104 -6.5831 -2.1480 0.5199 3.0207 -32.3824 -13.0807 
0.0000 93.1000 0.0000 56.0318 -41.0681 -29.8308 -70.9946 -0.2162 88.0049 105.9185 71.7145 -23.0748 -5.5716 22.7941 2.7391 -163.3799 36.1421 170.1288 -154.2578 74.9286 173.7905 -0.2953 -13.6900 -32.8598 -72.9652 53.4056 -57.8100 14.6793 -1.0690 -90.2241 0.0973 0.0235 0.0642 -2.6755 5.8634 45.0730 -68.8260 -36.2160 77.0026 18.0959 2.3926 95.5348 0.4269 -0.0517 -0.1604 -33.3576 0.9333 95.0031 -25.8240 80.3450 16.9996 -4.8526 2.9104 0.7121 2.0891 -8.6502 8.1068 -51.0391 1.1024 88.1167 0.8879 47.2871 -7.9508 -10.1001 -14.0263 1.5004 1.6173 -28.5081 -1.0807 
0.0000 93.1000 0.0000 56.0833 -40.1000 -27.7512 -70.9971 -0.2179 88.0031 104.9742 70.1356 -20.2092 -5.1024 20.8264 1.9842 -163.4115 34.0571 171.1853 -154.2925 73.0436 174.1535 -0.4548 -14.3014 -33.9769 -74.1591 49.0245 -64.7904 12.9944 -1.0367 -91.1189 0.4674 0.0331 0.2501 -2.6326 5.6256 45.9056 -67.8855 -34.9953 74.9616 14.4288 -1.1375 85.6183 0.1264 0.0312 -0.0319 -41.1652 1.6598 94.0606 -43.0386 83.2251 32.9448 -4.5027 5.0299 1.0364 1.8986 -8.1594 7.6939 -40.4872 3.5326 88.1190 2.9585 53.9198 -0.9138 -5.6945 -22.3806 1.1918 3.6818 -15.0816 -20.7782 
0.0000 93.1000 0.0000 57.9644 -40.3678 -26.9367 -70.9918 0.0180 88.0038 108.9734 68.3708 -22.7941 -5.1683 19.7057 0.7865 -163.3867 32.2820 170.1828 -155.0660 71.0550 173.8785 -0.6407 -14.7264 -34.3117 -73.1595 45.0663 -71.8009 12.8765 -1.1292 -93.3246 0.1004 0.2806 0.1832 -2.7352 5.8486 46.0670 -65.9476 -34.8310 72.8936 13.7464 -2.8065 78.9534 0.0012 -0.1685 0.0446 -51.1016 -1.3665 93.0421 -27.8495 81.4852 18.1466 -5.1083 6.3461 1.3219 1.1146 -6.5578 5.0190 -31.9111 3.3337 85.0351 2.8903 59.1278 -6.1063 -4.3199 -23.8149 1.1206 2.0829 -7.0034 -14.7469 
0.0000 93.1000 0.0000 55.9438 -41.9103 -27.9537 -70.9896 -0.2642 88.0022 104.8112 68.5360 -19.2870 -4.7734 19.2818 1.4830 -163.3101 30.9431 170.9869 -157.3511 69.7038 176.8769 -0.6013 -15.3046 -34.6268 -74.9878 41.3693 -74.8203 13.9710 -2.8000 -99.5024 0.0034 0.0440 0.2023 -2.6750 6.1306 46.0561 -64.9640 -36.5161 69.0349 12.5918 -3.8832 76.8956 0.0099 0.0588 0.1522 -62.1718 -3.1661 93.6699 -10.9076 71.1434 1.1319 -8.4665 8.7688 2.2627 -0.7173 -0.4426 3.2583 -26.1356 5.5423 83.8373 1.8784 55.1559 -5.0474 -5.2547 -19.2244 0.8274 1.6956 -0.8484 -14.3920 
0.0000 93.1000 0.0000 55.0914 -40.2940 -26.7646 -70.9848 -0.1827 88.0039 103.8503 67.4398 -18.0130 -4.2424 18.0304 2.3249 -163.3064 28.7240 169.7973 -156.3801 67.0789 176.0006 0.5639 -14.9766 -32.3768 -75.0936 40.0546 -78.8492 12.0537 -4.0170 -106.1520 -0.0890 -0.1805 0.1730 -2.1014 6.3025 46.0626 -64.9554 -37.0328 65.0288 11.3671 -2.5369 79.7170 -0.0478 0.2893 0.4851 -68.1017 -6.1626 90.0877 -6.1405 58.1936 -7.2568 -12.2376 12.5280 2.8139 -2.3794 3.7685 1.1764 -23.4957 5.1167 83.1103 0.8875 43.8346 -5.9755 -4.4106 -6.7583 0.0478 -0.0378 2.9972 -2.9565 
